<?xml version="1.0" encoding="iso-8859-1"?>
<!-- Generator: Adobe Illustrator 19.0.0, SVG Export Plug-In . SVG Version: 6.00 Build 0)  -->
<svg xmlns="http://www.w3.org/2000/svg" xmlns:xlink="http://www.w3.org/1999/xlink" version="1.1" id="Capa_1" x="0px" y="0px" viewBox="0 0 512.105 512.105" style="enable-background:new 0 0 512.105 512.105;" xml:space="preserve" width="512px" height="512px">
<g>
	<g>
		<path d="M128.052,325.818c-38.4,0-69.818,31.418-69.818,69.818c0,20.945,9.309,39.564,23.273,52.364v52.364    c0,3.491,2.327,6.982,4.655,9.309c3.491,2.327,6.982,3.491,10.473,1.164l31.418-10.473l31.418,10.473    c1.164,0,2.327,1.164,3.491,1.164c2.327,0,4.655-1.164,6.982-2.327c3.491-2.327,4.655-5.818,4.655-9.309V448    c13.964-12.8,23.273-31.418,23.273-52.364C197.871,357.236,166.452,325.818,128.052,325.818z M151.325,484.073l-19.782-6.982    c-2.327-1.164-4.655-1.164-6.982,0l-19.782,6.982V460.8c6.982,2.327,15.127,4.655,23.273,4.655s16.291-1.164,23.273-4.655V484.073    z M128.052,442.182c-25.6,0-46.545-20.945-46.545-46.545c0-25.6,20.945-46.545,46.545-46.545s46.545,20.945,46.545,46.545    C174.598,421.236,153.652,442.182,128.052,442.182z" fill="#FFFFFF"/>
	</g>
</g>
<g>
	<g>
		<circle cx="128.052" cy="395.636" r="23.273" fill="#FFFFFF"/>
	</g>
</g>
<g>
	<g>
		<path d="M488.78,216.436l-6.982-6.982c-6.982-6.982-17.455-11.636-27.927-11.636c-10.473,0-20.945,4.655-27.927,11.636    l-41.891,41.891V128v-15.127c0-15.127-5.818-30.255-17.455-40.727l-54.691-54.691C301.434,5.818,287.471,0,271.18,0h-15.127    H46.598C26.816,0,11.689,15.127,11.689,34.909v418.909c0,19.782,15.127,34.909,34.909,34.909h11.636    c6.982,0,11.636-4.655,11.636-11.636s-4.655-11.636-11.636-11.636H46.598c-6.982,0-11.636-4.655-11.636-11.636V34.909    c0-6.982,4.655-11.636,11.636-11.636h209.455c12.8,0,23.273,10.473,23.273,23.273v23.273c0,19.782,15.127,34.909,34.909,34.909    h23.273c12.8,0,23.273,10.473,23.273,23.273v139.636c0,2.327,1.164,3.491,1.164,5.818l-67.491,67.491    c-1.164,1.164-2.327,3.491-3.491,5.818l-9.309,48.873h-25.6c-6.982,0-11.636,4.655-11.636,11.636    c0,6.982,4.655,11.636,11.636,11.636h34.909c1.164,0,1.164,0,2.327,0l58.182-11.636c2.327,0,4.655-1.164,5.818-3.491    L488.78,272.291c6.982-6.982,11.636-17.455,11.636-27.927S495.762,223.418,488.78,216.436z M337.507,81.455h-23.273    c-6.982,0-11.636-4.655-11.636-11.636V46.545c0-2.327,0-4.655-1.164-8.145l43.055,43.055    C342.162,81.455,339.834,81.455,337.507,81.455z M306.089,392.145l3.491-19.782l16.291,16.291L306.089,392.145z M472.489,256    L349.143,379.345l-30.255-30.255l123.345-123.345c5.818-5.818,17.455-5.818,23.273,0l6.982,6.982    c3.491,3.491,4.655,6.982,4.655,11.636S475.98,252.509,472.489,256z" fill="#FFFFFF"/>
	</g>
</g>
<g>
	<g>
		<path d="M372.416,407.273c-6.982,0-11.636,4.655-11.636,11.636v34.909c0,6.982-4.655,11.636-11.636,11.636H197.871    c-6.982,0-11.636,4.655-11.636,11.636s4.655,11.636,11.636,11.636h151.273c19.782,0,34.909-15.127,34.909-34.909v-34.909    C384.052,411.927,379.398,407.273,372.416,407.273z" fill="#FFFFFF"/>
	</g>
</g>
<g>
	<g>
		<path d="M186.234,139.636H69.871c-6.982,0-11.636,4.655-11.636,11.636c0,6.982,4.655,11.636,11.636,11.636h116.364    c6.982,0,11.636-4.655,11.636-11.636C197.871,144.291,193.216,139.636,186.234,139.636z" fill="#FFFFFF"/>
	</g>
</g>
<g>
	<g>
		<path d="M302.598,186.182H162.962c-6.982,0-11.636,4.655-11.636,11.636s4.655,11.636,11.636,11.636h139.636    c6.982,0,11.636-4.655,11.636-11.636S309.58,186.182,302.598,186.182z" fill="#FFFFFF"/>
	</g>
</g>
<g>
	<g>
		<path d="M302.598,139.636H232.78c-6.982,0-11.636,4.655-11.636,11.636c0,6.982,4.655,11.636,11.636,11.636h69.818    c6.982,0,11.636-4.655,11.636-11.636C314.234,144.291,309.58,139.636,302.598,139.636z" fill="#FFFFFF"/>
	</g>
</g>
<g>
	<g>
		<path d="M232.78,93.091h-69.818c-6.982,0-11.636,4.655-11.636,11.636s4.655,11.636,11.636,11.636h69.818    c6.982,0,11.636-4.655,11.636-11.636S239.762,93.091,232.78,93.091z" fill="#FFFFFF"/>
	</g>
</g>
<g>
	<g>
		<path d="M174.598,232.727H69.871c-6.982,0-11.636,4.655-11.636,11.636S62.889,256,69.871,256h104.727    c6.982,0,11.636-4.655,11.636-11.636S181.58,232.727,174.598,232.727z" fill="#FFFFFF"/>
	</g>
</g>
<g>
	<g>
		<path d="M116.416,279.273H69.871c-6.982,0-11.636,4.655-11.636,11.636s4.655,11.636,11.636,11.636h46.545    c6.982,0,11.636-4.655,11.636-11.636S123.398,279.273,116.416,279.273z" fill="#FFFFFF"/>
	</g>
</g>
<g>
	<g>
		<path d="M116.416,186.182H69.871c-6.982,0-11.636,4.655-11.636,11.636s4.655,11.636,11.636,11.636h46.545    c6.982,0,11.636-4.655,11.636-11.636S123.398,186.182,116.416,186.182z" fill="#FFFFFF"/>
	</g>
</g>
<g>
	<g>
		<path d="M302.598,232.727h-81.455c-6.982,0-11.636,4.655-11.636,11.636S214.162,256,221.143,256h81.455    c6.982,0,11.636-4.655,11.636-11.636S309.58,232.727,302.598,232.727z" fill="#FFFFFF"/>
	</g>
</g>
<g>
	<g>
		<path d="M256.052,279.273h-93.091c-6.982,0-11.636,4.655-11.636,11.636s4.655,11.636,11.636,11.636h93.091    c6.982,0,11.636-4.655,11.636-11.636S263.034,279.273,256.052,279.273z" fill="#FFFFFF"/>
	</g>
</g>
<g>
</g>
<g>
</g>
<g>
</g>
<g>
</g>
<g>
</g>
<g>
</g>
<g>
</g>
<g>
</g>
<g>
</g>
<g>
</g>
<g>
</g>
<g>
</g>
<g>
</g>
<g>
</g>
<g>
</g>
</svg>
