<?xml version="1.0" standalone="no"?>
<!DOCTYPE svg PUBLIC "-//W3C//DTD SVG 20010904//EN"
 "http://www.w3.org/TR/2001/REC-SVG-20010904/DTD/svg10.dtd">
<svg version="1.0" xmlns="http://www.w3.org/2000/svg"
 width="1024.000000pt" height="1024.000000pt" viewBox="0 0 1024.000000 1024.000000"
 preserveAspectRatio="xMidYMid meet">
<metadata>
Created by potrace 1.15, written by Peter Selinger 2001-2017
</metadata>
<g transform="translate(0.000000,1024.000000) scale(0.100000,-0.100000)"
fill="#000000" stroke="none">
<path d="M4998 8711 c-80 -26 -136 -61 -189 -118 -30 -32 -186 -294 -474 -793
-236 -410 -469 -815 -518 -900 -155 -268 -396 -686 -530 -920 -71 -124 -163
-283 -205 -355 -76 -132 -622 -1080 -1452 -2520 -261 -453 -385 -667 -464
-802 -110 -188 -123 -218 -136 -293 -29 -172 61 -358 215 -444 109 -60 -179
-56 3875 -56 3389 0 3721 1 3771 16 133 40 228 117 280 228 45 96 55 175 35
272 -14 70 -32 108 -183 369 -273 474 -375 653 -455 790 -41 72 -109 189 -150
260 -134 233 -263 456 -383 665 -65 113 -157 273 -205 355 -47 83 -166 290
-265 460 -98 171 -226 393 -285 495 -120 209 -1333 2314 -1418 2460 -30 52
-124 217 -210 365 -85 149 -170 291 -188 316 -37 51 -126 116 -194 144 -68 26
-201 30 -272 6z m238 -140 c84 -38 116 -80 285 -374 90 -155 217 -376 284
-492 67 -115 193 -334 280 -485 87 -151 268 -466 403 -700 243 -421 316 -548
467 -810 110 -191 595 -1033 948 -1645 165 -286 357 -619 427 -740 69 -121
246 -428 392 -681 360 -625 349 -603 355 -672 8 -88 -16 -158 -78 -226 -36
-40 -65 -61 -105 -76 l-55 -20 -3725 0 -3725 0 -49 21 c-56 24 -128 96 -156
155 -14 28 -19 61 -19 119 l0 80 127 220 c69 121 191 333 270 470 80 138 360
624 623 1080 490 850 538 933 807 1400 86 149 215 374 288 500 73 127 286 496
473 820 187 325 383 664 435 755 146 253 274 476 395 685 61 105 153 264 205
355 117 205 137 228 237 267 48 19 164 15 211 -6z"/>
<path d="M5078 7618 c-8 -7 -70 -110 -138 -228 -67 -118 -144 -251 -170 -295
-26 -44 -101 -174 -167 -290 -126 -219 -357 -620 -945 -1640 -124 -214 -422
-732 -663 -1150 -241 -418 -478 -830 -528 -915 -476 -824 -463 -798 -423 -838
16 -16 209 -17 3064 -19 2433 -2 3052 0 3072 10 13 7 29 24 34 39 10 28 -4 56
-249 478 -59 102 -194 336 -300 520 -106 184 -233 405 -282 490 -50 85 -262
454 -473 820 -211 366 -552 958 -758 1315 -206 358 -510 884 -674 1170 -165
286 -306 526 -315 533 -9 6 -29 12 -43 12 -14 0 -33 -6 -42 -12z m142 -360
c51 -90 166 -289 255 -443 197 -341 461 -799 643 -1115 74 -129 183 -318 242
-420 59 -102 185 -320 280 -485 95 -165 232 -403 305 -530 294 -508 629 -1089
830 -1440 117 -203 223 -387 235 -407 l22 -38 -2910 0 -2911 0 33 58 c66 117
351 611 416 722 37 63 120 206 184 318 204 354 346 602 459 797 61 105 153
264 205 355 133 232 359 625 639 1110 198 342 762 1321 926 1607 23 40 45 73
48 73 3 0 48 -73 99 -162z"/>
<path d="M5027 6340 c-76 -19 -158 -80 -202 -150 -48 -77 -60 -135 -59 -290 1
-120 19 -284 103 -940 55 -437 112 -887 126 -1000 32 -256 36 -274 75 -290 35
-14 97 -7 118 13 16 16 18 32 147 957 52 377 99 714 105 750 49 336 54 384 55
530 0 139 -2 161 -23 212 -31 76 -96 147 -169 183 -49 24 -72 29 -148 31 -49
2 -107 -1 -128 -6z m228 -153 c50 -28 92 -95 106 -170 15 -86 8 -148 -116
-1032 -30 -214 -69 -496 -86 -625 -18 -129 -35 -238 -39 -242 -5 -6 -160 1186
-206 1582 -39 342 2 470 163 509 53 13 130 3 178 -22z"/>
<path d="M4995 3470 c-151 -50 -255 -196 -255 -355 1 -140 86 -272 219 -334
48 -22 69 -26 151 -26 78 0 104 4 144 23 292 134 298 539 10 674 -85 40 -184
47 -269 18z m211 -139 c49 -22 111 -92 124 -140 44 -157 -63 -303 -222 -303
-58 0 -118 22 -162 60 -34 30 -66 113 -66 173 0 95 45 163 145 218 32 17 135
13 181 -8z"/>
</g>
</svg>
