<?xml version="1.0" encoding="iso-8859-1"?>
<!-- Generator: Adobe Illustrator 19.0.0, SVG Export Plug-In . SVG Version: 6.00 Build 0)  -->
<svg xmlns="http://www.w3.org/2000/svg" xmlns:xlink="http://www.w3.org/1999/xlink" version="1.1" id="Capa_1" x="0px" y="0px" viewBox="0 0 514.186 514.186" style="enable-background:new 0 0 514.186 514.186;" xml:space="preserve" width="512px" height="512px">
<g>
	<g>
		<path d="M424.656,185.458c-4.655-5.818-4.655-15.127,0-22.109c6.982-10.473,8.145-23.273,5.818-34.909    c-3.491-11.636-11.636-22.109-22.109-27.927c-6.982-3.491-11.636-11.636-11.636-19.782c0-12.8-4.655-24.436-12.8-33.745    c-9.309-6.982-20.945-11.636-33.745-11.636c-8.146,0-15.127-3.491-19.782-11.636c-4.655-10.473-15.127-18.618-26.764-22.109    s-24.436-1.164-34.909,5.818c-6.982,4.655-16.291,4.655-23.273,0c-10.473-6.982-23.273-8.145-34.909-5.818    c-11.636,3.491-22.109,11.636-27.927,22.109c-3.491,6.982-11.636,11.636-19.782,11.636c-12.8-1.164-24.436,4.655-33.745,12.8    c-6.982,9.309-11.636,20.945-11.636,33.745c0,8.145-3.491,15.127-11.636,19.782c-10.473,4.655-18.618,15.127-22.109,26.764    s-1.164,24.436,5.818,34.909c4.655,6.982,4.655,16.291,0,23.273c-6.982,10.473-8.145,23.273-5.818,34.909    c3.491,11.636,11.636,22.109,22.109,27.927c6.982,3.491,11.636,11.636,11.636,19.782c0,12.8,4.655,24.436,12.8,33.745    c9.309,9.309,20.945,13.964,33.745,12.8v186.182c0,4.655,2.327,8.145,5.818,10.473s8.145,2.327,11.636,0l75.636-43.055    l75.636,43.055c2.327,0,3.491,0,5.818,0c2.327,0,3.491,0,5.818-1.164c3.491-2.327,5.818-5.818,5.818-10.473V361.167    c0-6.982-4.655-11.636-11.636-11.636c-6.982,0-11.636,4.655-11.636,11.636v119.855l-58.182-33.745v-51.2    c0-6.982-4.655-11.636-11.636-11.636s-11.636,4.655-11.636,11.636v51.2l-58.182,33.745V332.077    c5.818,8.146,13.964,12.8,23.273,16.291c11.636,3.491,24.436,1.164,34.909-5.818c6.982-4.655,15.127-4.655,22.109,0    s15.127,6.982,23.273,6.982c3.491,0,8.145,0,11.636-1.164c11.636-3.491,22.109-11.636,27.927-22.109    c3.491-6.982,11.636-11.636,19.782-11.636c12.8,1.164,24.436-4.655,33.745-12.8c9.309-9.309,13.964-20.945,12.8-33.745    c0-8.145,3.491-15.127,11.636-19.782c10.473-5.818,18.618-16.291,22.109-27.927C433.966,208.731,431.638,195.931,424.656,185.458z     M407.202,214.549c-1.164,5.818-5.818,10.473-10.473,12.8c-15.127,8.145-24.436,24.436-23.273,40.727    c0,5.818-2.327,11.636-5.818,15.127c-4.655,4.655-9.309,5.818-15.127,5.818c-17.455-1.164-33.745,8.145-40.727,23.273    c-2.327,5.818-6.982,9.309-12.8,10.473s-11.636,1.164-16.291-2.327c-6.982-4.655-15.127-6.982-23.273-6.982    c-8.145,0-16.291,2.327-23.273,6.982c-4.655,3.491-10.473,4.655-16.291,2.327c-5.818-1.164-10.473-5.818-12.8-10.473    c-8.145-15.127-23.273-24.436-40.727-23.273c-5.818,0-11.636-2.327-15.127-5.818c-3.491-3.491-10.473-8.145-10.473-13.964    c1.164-17.455-8.145-33.745-23.273-40.727c-5.818-2.327-9.309-6.982-10.473-12.8c-2.327-5.818-1.164-11.636,2.327-17.455    c9.309-13.964,9.309-32.582,0-47.709c-3.491-4.655-4.655-10.473-2.327-16.291c1.164-5.818,5.818-10.473,10.473-12.8    c15.127-8.145,24.436-24.436,23.273-40.727c0-5.818,2.327-11.636,5.818-15.127c4.655-4.655,10.473-6.982,16.291-6.982    c17.455,1.164,33.745-8.145,40.727-23.273c2.327-5.818,6.982-9.309,12.8-10.473c5.818-2.327,11.636-1.164,17.455,2.327    c13.964,9.309,32.582,9.309,47.709,0c4.655-3.491,10.473-4.655,16.291-2.327c5.818,1.164,10.473,4.655,12.8,10.473    c8.145,15.127,24.436,24.436,40.727,23.273c5.818,0,11.636,2.327,15.127,5.818c4.655,4.655,6.982,10.473,6.982,16.291    c-1.164,17.455,8.145,33.745,23.273,40.727c5.818,2.327,9.309,6.982,10.473,12.8c1.164,5.818,1.164,11.636-2.327,16.291    c-9.309,15.127-9.309,33.745,0,47.709C408.366,202.913,409.529,208.731,407.202,214.549z" fill="#FFFFFF"/>
	</g>
</g>
<g>
	<g>
		<path d="M303.638,163.349c0-1.164-1.164-2.327-2.327-2.327l-29.091-4.655l-12.8-26.764c0-1.164-1.164-1.164-2.327-1.164    s-2.327,1.164-2.327,1.164l-12.8,26.764l-29.091,4.655c-1.164,0-2.327,1.164-2.327,2.327s0,2.327,1.164,3.491l20.945,20.945    l-4.655,30.255c0,1.164,0,2.327,1.164,3.491s2.327,1.164,3.491,0l25.6-13.964l25.6,13.964h1.164c1.164,0,1.164,0,1.164-1.164    c1.164-1.164,1.164-2.327,1.164-3.491l-4.655-30.255l20.945-20.945C303.638,165.677,303.638,164.513,303.638,163.349z" fill="#FFFFFF"/>
	</g>
</g>
<g>
	<g>
		<path d="M257.093,58.622c-64,0-116.364,52.364-116.364,116.364c0,6.982,4.655,11.636,11.636,11.636    c6.982,0,11.636-4.655,11.636-11.636c0-51.2,41.891-93.091,93.091-93.091s93.091,41.891,93.091,93.091    s-41.891,93.091-93.091,93.091c-36.073,0-67.491-19.782-83.782-51.2c-2.327-5.818-9.309-8.146-15.127-5.818    c-5.818,2.327-8.146,9.309-5.818,15.127c19.782,39.564,59.345,65.164,104.727,65.164c64,0,116.364-52.364,116.364-116.364    S321.093,58.622,257.093,58.622z" fill="#FFFFFF"/>
	</g>
</g>
<g>
</g>
<g>
</g>
<g>
</g>
<g>
</g>
<g>
</g>
<g>
</g>
<g>
</g>
<g>
</g>
<g>
</g>
<g>
</g>
<g>
</g>
<g>
</g>
<g>
</g>
<g>
</g>
<g>
</g>
</svg>
