<?xml version="1.0" encoding="iso-8859-1"?>
<!-- Generator: Adobe Illustrator 16.0.0, SVG Export Plug-In . SVG Version: 6.00 Build 0)  -->
<!DOCTYPE svg PUBLIC "-//W3C//DTD SVG 1.1//EN" "http://www.w3.org/Graphics/SVG/1.1/DTD/svg11.dtd">
<svg xmlns="http://www.w3.org/2000/svg" xmlns:xlink="http://www.w3.org/1999/xlink" version="1.1" id="Capa_1" x="0px" y="0px" width="512px" height="512px" viewBox="0 0 532.322 532.321" style="enable-background:new 0 0 532.322 532.321;" xml:space="preserve">
<g>
	<g>
		<path d="M75.167,479.104l72.938-29.337c4.715-1.896,9.973,0.429,11.738,5.196l27.322,73.719c1.766,4.767,4.866,4.862,6.925,0.214    l72.069-162.811l72.069,162.811c2.056,4.648,5.159,4.553,6.925-0.214l27.322-73.719c1.766-4.768,7.022-7.093,11.738-5.196    l72.938,29.337c4.715,1.896,6.872-0.334,4.813-4.982l-70.365-158.957c-33.078,29.388-76.484,47.371-124.027,47.724    c-0.475,0.003-0.94,0.036-1.414,0.036c-0.474,0-0.939-0.033-1.414-0.036c-47.543-0.353-90.949-18.336-124.028-47.724    L70.354,474.122C68.295,478.771,70.452,481.001,75.167,479.104z" fill="#FFFFFF"/>
		<path d="M147.212,300.492c29.223,27.451,67.919,44.924,110.683,46.928c2.739,0.129,5.493,0.208,8.262,0.208    s5.523-0.079,8.262-0.208c42.764-2.001,81.46-19.477,110.684-46.928c33.752-31.705,54.865-76.714,54.865-126.678    C439.968,77.819,362.15,0,266.154,0C170.159,0,92.347,77.819,92.347,173.814C92.347,223.778,113.46,268.784,147.212,300.492z     M266.161,31.469c78.489,0,142.345,63.856,142.345,142.345c0,36.827-14.061,70.435-37.093,95.732    c-21.172,23.256-49.934,39.468-82.32,44.737c-7.47,1.215-15.122,1.873-22.929,1.873c-7.806,0-15.459-0.658-22.928-1.873    c-32.387-5.27-61.148-21.481-82.32-44.737c-23.033-25.3-37.093-58.905-37.093-95.732    C123.815,95.325,187.671,31.469,266.161,31.469z" fill="#FFFFFF"/>
		<path d="M235.643,297.142c9.78,2.411,19.994,3.715,30.518,3.715s20.74-1.304,30.518-3.715    c27.108-6.687,50.787-22.06,67.907-43.015c17.883-21.888,28.62-49.845,28.62-80.313c0-70.166-56.879-127.045-127.045-127.045    s-127.045,56.879-127.045,127.045c0,30.468,10.737,58.425,28.62,80.313C184.856,275.085,208.535,290.455,235.643,297.142z     M228.054,101.026l39.964-21.396c0.446-0.239,0.942-0.364,1.444-0.364h21.12c1.689,0,3.06,1.371,3.06,3.06v145.319v24.33v13.326    c0,1.689-1.37,3.061-3.06,3.061h-23.93c-1.688,0-3.06-1.371-3.06-3.061v-24.354v-2.273V110.243l-27.861,15.037    c-0.832,0.45-1.824,0.49-2.684,0.11c-0.863-0.379-1.502-1.135-1.735-2.05l-4.78-18.865    C226.188,103.109,226.815,101.69,228.054,101.026z" fill="#FFFFFF"/>
	</g>
</g>
<g>
</g>
<g>
</g>
<g>
</g>
<g>
</g>
<g>
</g>
<g>
</g>
<g>
</g>
<g>
</g>
<g>
</g>
<g>
</g>
<g>
</g>
<g>
</g>
<g>
</g>
<g>
</g>
<g>
</g>
</svg>
