<?xml version="1.0" encoding="iso-8859-1"?>
<!-- Generator: Adobe Illustrator 19.0.0, SVG Export Plug-In . SVG Version: 6.00 Build 0)  -->
<svg xmlns="http://www.w3.org/2000/svg" xmlns:xlink="http://www.w3.org/1999/xlink" version="1.1" id="Capa_1" x="0px" y="0px" viewBox="0 0 512 512" style="enable-background:new 0 0 512 512;" xml:space="preserve" width="512px" height="512px">
<g>
	<g>
		<path d="M500.364,395.636h-22.109c-3.491,0-8.145-2.327-10.473-5.818l-55.855-94.255c-5.818-10.473-17.455-17.455-30.255-17.455    h-30.255c-4.655,0-8.145-2.327-10.473-6.982l-22.109-44.218c-5.818-11.636-17.455-19.782-31.418-19.782h-19.782V69.818H332.8    L325.818,89.6c-1.164,2.327-1.164,4.655,0,6.982l6.982,19.782h-30.255c-6.982,0-11.636,4.655-11.636,11.636    s4.655,11.636,11.636,11.636h46.545c3.491,0,6.982-2.327,9.309-4.655c2.327-2.327,2.327-6.982,1.164-10.473l-9.309-31.418    l10.473-31.418c1.164-3.491,0-6.982-2.327-10.473c-2.327-3.491-5.818-4.655-9.309-4.655h-81.455V34.909    c0-6.982-4.655-11.636-11.636-11.636s-11.636,4.655-11.636,11.636v174.545h-19.782c-13.964,0-26.764,8.146-32.582,20.945    l-23.273,53.527c-2.327,4.655-5.818,6.982-10.473,6.982H128c-11.636,0-22.109,5.818-29.091,15.127l-55.855,83.782    c-1.164,3.491-4.655,5.818-9.309,5.818H11.636C4.655,395.636,0,400.291,0,407.273c0,6.982,4.655,11.636,11.636,11.636h22.109    c11.636,0,22.109-5.818,29.091-15.127L118.691,320c2.327-3.491,5.818-4.655,9.309-4.655h116.364    c6.982,0,11.636-4.655,11.636-11.636s-4.655-11.636-11.636-11.636H192l22.109-51.2c2.327-4.655,5.818-6.982,10.473-6.982H256    h32.582c4.655,0,8.145,2.327,10.473,6.982l22.109,44.218c5.818,11.636,17.455,19.782,31.418,19.782h30.255    c3.491,0,8.145,2.327,10.473,5.818l52.364,87.273h-50.036c-6.982,0-11.636,4.655-11.636,11.636s4.655,11.636,11.636,11.636    h104.727c6.982,0,11.636-4.655,11.636-11.636S507.345,395.636,500.364,395.636z" fill="#FFFFFF"/>
	</g>
</g>
<g>
	<g>
		<path d="M500.364,267.636h-37.236c-9.309,0-18.618,3.491-24.436,10.473l-4.655,4.655c-4.655,4.655-4.655,11.636,0,16.291    c2.327,2.327,4.655,3.491,8.145,3.491s5.818-1.164,8.145-3.491l4.655-4.655c2.327-2.327,4.655-3.491,8.145-3.491h37.236    c6.982,0,11.636-4.655,11.636-11.636S507.345,267.636,500.364,267.636z" fill="#FFFFFF"/>
	</g>
</g>
<g>
	<g>
		<path d="M136.145,259.491l-4.655-4.655c-6.982-6.982-15.127-10.473-24.436-10.473H23.273c-6.982,0-11.636,4.655-11.636,11.636    s4.655,11.636,11.636,11.636h83.782c3.491,0,5.818,1.164,8.145,3.491l4.655,4.655c2.327,2.327,5.818,3.491,8.145,3.491    s5.818-1.164,8.145-3.491C140.8,271.127,140.8,264.145,136.145,259.491z" fill="#FFFFFF"/>
	</g>
</g>
<g>
	<g>
		<path d="M500.364,465.455H11.636C4.655,465.455,0,470.109,0,477.091s4.655,11.636,11.636,11.636h488.727    c6.982,0,11.636-4.655,11.636-11.636S507.345,465.455,500.364,465.455z" fill="#FFFFFF"/>
	</g>
</g>
<g>
</g>
<g>
</g>
<g>
</g>
<g>
</g>
<g>
</g>
<g>
</g>
<g>
</g>
<g>
</g>
<g>
</g>
<g>
</g>
<g>
</g>
<g>
</g>
<g>
</g>
<g>
</g>
<g>
</g>
</svg>
