<?xml version="1.0" encoding="iso-8859-1"?>
<!-- Generator: Adobe Illustrator 18.0.0, SVG Export Plug-In . SVG Version: 6.00 Build 0)  -->
<!DOCTYPE svg PUBLIC "-//W3C//DTD SVG 1.1//EN" "http://www.w3.org/Graphics/SVG/1.1/DTD/svg11.dtd">
<svg xmlns="http://www.w3.org/2000/svg" xmlns:xlink="http://www.w3.org/1999/xlink" version="1.1" id="Capa_1" x="0px" y="0px" viewBox="0 0 486.104 486.104" style="enable-background:new 0 0 486.104 486.104;" xml:space="preserve" width="512px" height="512px">
<g>
	<path d="M254.459,128.652c9.428,0,18.78-2.257,27.142-6.495c1.867,0.156,3.82,0.251,5.898,0.251c0.002,0,0.002,0,0.004,0   c11.996,0,26.117-2.876,43.167-8.791c1.721-0.598,2.869-2.225,2.857-4.046c-0.025-3.507-1.19-86.097-51.703-105.047   C276.645,2.582,268.661,0,259.14,0c-5.803,0-11.624,0.968-17.323,2.855c-4.743-0.454-22.613-1.435-30.925,8.398   c-4.14,4.897-5.124,11.39-2.949,19.3c-8.759,10.706-13.569,24.121-13.569,38.013C194.374,101.697,221.328,128.652,254.459,128.652z    M254.459,120.152c-28.444,0-51.586-23.143-51.586-51.588c0-10.383,3.133-20.454,8.902-28.952   c6.454,10.89,17.736,17.31,27.915,23.1c10.194,5.801,19.823,11.301,23.473,20.215c-1.438,8.492-5.079,16.692-11.945,23.928   c-0.98,1.033-1.378,2.487-1.06,3.875c0.318,1.388,1.31,2.524,2.642,3.026c1.564,0.591,3.111,1.225,4.749,1.895   c2.614,1.07,5.354,2.186,8.344,3.197C262.151,119.697,258.315,120.152,254.459,120.152z M259.14,8.5   c8.048,0,14.754,2.129,19.697,3.983c39.989,15.002,45.374,79.31,46.083,94.109c-14.803,4.92-27.068,7.316-37.418,7.316   c-0.001,0-0.003,0-0.003,0c-11.449,0-18.958-2.946-26.131-5.878c12.892-16.922,14.607-39.513,4.895-65.77   C260.963,27.935,253.592,16,249.238,9.6C252.529,8.869,255.841,8.5,259.14,8.5z M217.377,16.747   c4.685-5.556,16.616-5.932,22.611-5.512c4.493,6.227,21.724,31.657,23.727,57.732c-5.522-5.502-12.744-9.616-19.821-13.643   c-12.216-6.95-23.754-13.516-27.593-26.432C214.693,23.485,215.045,19.512,217.377,16.747z" fill="#FFFFFF"/>
	<path d="M378.034,226.864l-70.729-45.374l-0.919-4.354c-5.503-26.87-26.666-46.373-50.322-46.373   c-23.549,0-44.578,19.235-50.209,45.816l-59.241,41.835c-12.124,8.563-15.022,25.393-6.461,37.52   c1.664,2.355,3.681,4.39,5.943,6.068h-3.374c-7.09,0-12.857,5.769-12.857,12.858v2.636h-22.486   c-6.442,0-11.684,5.242-11.684,11.686v70.998c0,6.443,5.241,11.685,11.684,11.685h88.958l-28.977,71.922   c-3.101,7.591-3.06,15.934,0.115,23.492c3.175,7.559,9.103,13.429,16.692,16.529c3.749,1.531,7.68,2.296,11.61,2.296   c4.027,0,8.055-0.804,11.879-2.409c7.56-3.174,13.431-9.102,16.523-16.674l30.577-73.884l31.169,73.987   c3.175,7.56,9.103,13.431,16.691,16.53c3.748,1.531,7.679,2.296,11.608,2.296c4.029,0,8.057-0.804,11.884-2.41   c15.604-6.553,22.968-24.578,16.404-40.207l-34.56-80.807h32.309c1.281,0,2.494-0.578,3.301-1.573   c0.807-0.995,1.122-2.301,0.857-3.555l-21.506-101.925l26.047,16.71c4.392,2.817,9.388,4.271,14.482,4.271   c1.928,0,3.869-0.208,5.798-0.629c7.024-1.535,13.031-5.713,16.914-11.765C394.171,251.567,390.528,234.88,378.034,226.864z    M256.063,139.264c19.637,0,37.298,16.645,42,39.604l23.88,113.173c-0.236-0.041-0.476-0.073-0.724-0.073h-52   c-2.348,0-4.25,1.902-4.25,4.25c0,2.348,1.902,4.25,4.25,4.25h52c0.87,0,1.678-0.264,2.352-0.712l5.959,28.243   c-0.104-0.008-0.204-0.031-0.311-0.031H222.03v-38.784c0-6.443-5.241-11.686-11.684-11.686h-17.111l3.645-17.267   c0.424,0.142,0.869,0.236,1.34,0.236h44c2.348,0,4.25-1.902,4.25-4.25c0-2.348-1.902-4.25-4.25-4.25h-43.595l1.082-5.13   l63.158-44.601c12.124-8.564,15.022-25.396,6.459-37.52c-5.038-7.135-13.267-11.395-22.011-11.395   c-5.577,0-10.941,1.706-15.51,4.933l-14.663,10.355C224.265,151.122,239.443,139.264,256.063,139.264z M186.369,268.872   c-1.738-3.286-4.856-5.729-8.581-6.556l11.711-8.27L186.369,268.872z M151.516,225.358l85.19-60.16   c3.127-2.209,6.795-3.376,10.607-3.376c5.986,0,11.619,2.915,15.067,7.797c5.859,8.297,3.877,19.814-4.419,25.674l-85.189,60.16   c-3.128,2.208-6.796,3.376-10.607,3.376c-5.987-0.001-11.621-2.916-15.069-7.798C141.237,242.734,143.22,231.217,151.516,225.358z    M138.364,274.861c0-2.403,1.955-4.358,4.357-4.358h32.279c2.402,0,4.357,1.955,4.357,4.358v2.636h-40.994V274.861z    M107.377,285.997h80.611c0.004,0,0.007,0.001,0.01,0.001c0.004,0,0.008-0.001,0.012-0.001h22.336c1.756,0,3.184,1.429,3.184,3.186   v16.59l-44.424,10.32c-1.332-4.397-5.419-7.607-10.246-7.607c-4.81,0-8.888,3.189-10.233,7.564l-44.433-10.322v-16.545   C104.194,287.426,105.622,285.997,107.377,285.997z M161.067,319.19v8.608c0,1.217-0.99,2.206-2.207,2.206   c-1.216,0-2.205-0.989-2.205-2.206v-8.608c0-1.216,0.989-2.205,2.205-2.205C160.077,316.985,161.067,317.975,161.067,319.19z    M104.194,360.181v-3.853c0.33,0.082,0.67,0.139,1.025,0.139h35c2.348,0,4.25-1.902,4.25-4.25c0-2.348-1.902-4.25-4.25-4.25h-35   c-0.355,0-0.695,0.057-1.025,0.139v-33.651l43.942,10.208c0.006,0.001,0.013,0.002,0.019,0.003v3.134   c0,5.903,4.803,10.706,10.705,10.706c5.904,0,10.707-4.803,10.707-10.706v-3.087l43.963-10.213v45.682   c0,1.756-1.428,3.185-3.184,3.185H107.377C105.622,363.365,104.194,361.937,104.194,360.181z M216.318,463.789   c-2.241,5.488-6.486,9.774-11.952,12.069c-5.464,2.295-11.497,2.324-16.984,0.081c-2.796-1.142-5.273-2.809-7.342-4.886   c0.034-0.071,0.076-0.137,0.107-0.21l29-70c0.898-2.169-0.132-4.655-2.3-5.554c-2.172-0.897-4.655,0.131-5.554,2.3l-26.695,64.436   c-1.552-4.924-1.346-10.188,0.639-15.044l30.264-75.117h4.847c5.639,0,10.357-4.016,11.446-9.338h36.433L216.318,463.789z    M334.687,446.65c2.792,6.647,2.087,13.9-1.268,19.708l-27.436-60.361c-0.972-2.136-3.491-3.082-5.628-2.11   c-2.137,0.972-3.082,3.491-2.11,5.628l28.964,63.721c-1.34,0.966-2.804,1.802-4.391,2.468c-5.467,2.296-11.5,2.325-16.986,0.084   c-5.487-2.242-9.773-6.486-12.07-11.958l-33.611-79.784c-0.242-0.573-0.6-1.06-1.028-1.457l8.302-20.06h31.286L334.687,446.65z    M222.03,354.027v-17.561h107.189c0.723,0,1.393-0.197,1.988-0.516l3.814,18.076H222.03z M379.001,259.473   c-2.656,4.142-6.767,7-11.573,8.05c-4.811,1.05-9.736,0.165-13.877-2.492l-33.102-21.235l-10.682-50.625l63.676,40.849   C381.993,239.504,384.486,250.923,379.001,259.473z" fill="#FFFFFF"/>
</g>
<g>
</g>
<g>
</g>
<g>
</g>
<g>
</g>
<g>
</g>
<g>
</g>
<g>
</g>
<g>
</g>
<g>
</g>
<g>
</g>
<g>
</g>
<g>
</g>
<g>
</g>
<g>
</g>
<g>
</g>
</svg>
